<svg xmlns="http://www.w3.org/2000/svg" class="iconLeft" viewBox="0 0 381 90"><g id="f741290a-72b0-49b5-a0f4-d04a11ff7d77" fill="#000"><path d="M1.75 4.65C1.75 4.03 2.11 3.08 4.21 3.08C5.91 3.08 6.69 3.82 6.80 4.75L7.88 4.75C7.80 3.36 6.68 2.10 4.21 2.10C1.89 2.10 0.73 3.15 0.73 4.66C0.73 7.84 7.07 6.69 7.07 8.96C7.07 10.05 6.09 10.60 4.52 10.60C2.91 10.60 1.61 10.05 1.54 8.71L0.45 8.71C0.59 10.37 1.71 11.59 4.45 11.59C6.73 11.59 8.12 10.64 8.12 8.92C8.12 5.68 1.75 6.80 1.75 4.65ZM12.47 4.37C10.43 4.37 9.09 5.98 9.09 7.98C9.09 9.98 10.43 11.59 12.47 11.59C13.64 11.59 14.46 11.12 14.98 10.36L14.98 11.48L16.03 11.48L16.03 4.48L14.98 4.48L14.98 5.61C14.46 4.86 13.64 4.37 12.47 4.37ZM12.61 10.64C11.06 10.64 10.14 9.42 10.14 7.98C10.14 6.54 11.06 5.32 12.61 5.32C14.17 5.32 15.04 6.54 15.04 7.98C15.04 9.42 14.17 10.64 12.61 10.64ZM20.80 4.37C18.76 4.37 17.42 5.98 17.42 7.98C17.42 9.98 18.76 11.59 20.80 11.59C21.97 11.59 22.79 11.12 23.31 10.36L23.31 11.48L24.36 11.48L24.36 4.48L23.31 4.48L23.31 5.61C22.79 4.86 21.97 4.37 20.80 4.37ZM20.94 10.64C19.39 10.64 18.47 9.42 18.47 7.98C18.47 6.54 19.39 5.32 20.94 5.32C22.50 5.32 23.37 6.54 23.37 7.98C23.37 9.42 22.50 10.64 20.94 10.64ZM29.13 4.37C27.09 4.37 25.75 5.98 25.75 7.98C25.75 9.98 27.09 11.59 29.13 11.59C30.30 11.59 31.12 11.12 31.64 10.36L31.64 11.48L32.69 11.48L32.69 1.68L31.64 1.68L31.64 5.61C31.12 4.86 30.30 4.37 29.13 4.37ZM29.27 10.64C27.72 10.64 26.80 9.42 26.80 7.98C26.80 6.54 27.72 5.32 29.27 5.32C30.83 5.32 31.70 6.54 31.70 7.98C31.70 9.42 30.83 10.64 29.27 10.64ZM34.34 10.05L34.34 11.48L35.70 11.48L35.70 10.05ZM44.02 2.21L44.02 6.33L38.63 6.33L38.63 2.21L37.58 2.21L37.58 11.48L38.63 11.48L38.63 7.35L44.02 7.35L44.02 11.48L45.07 11.48L45.07 2.21Z" transform="matrix(6.054490506946714,0,0,6.054490506946714,107.2754724990256,4.828457213078728)"/></g><g id="8a93e36d-87ed-41e2-a005-3afbb7799ac8" fill="#000" stroke="none"><path d="M0 16.024L15.976 32 32 15.976 16.024 0 0 16.024zm15.989 7.323l-7.336-7.336 14.694-.022-7.358 7.358z" transform="matrix(2.8125,0,0,2.8125,0,0)"/></g></svg>