<?xml version="1.0" encoding="UTF-8"?>
<svg width="700pt" height="700pt" version="1.1" viewBox="0 0 700 700" xmlns="http://www.w3.org/2000/svg" xmlns:xlink="http://www.w3.org/1999/xlink">
 
 <g>
  <path d="m226.52 112.5v71.793c0 4.0078 1.5938 7.8555 4.4297 10.691 2.8359 2.8359 6.6797 4.4258 10.691 4.4258h116.76l-211.96 212.02c-2.8398 2.8359-4.4336 6.6836-4.4336 10.695 0 4.0117 1.5938 7.8594 4.4336 10.695l50.793 50.793h-0.003906c2.8359 2.8359 6.6836 4.4336 10.699 4.4336 4.0117 0 7.8594-1.5977 10.695-4.4336l211.96-212.02v116.76c0 4.0117 1.5898 7.8555 4.4258 10.691 2.8359 2.8359 6.6836 4.4297 10.691 4.4297h71.793c4.0117 0 7.8555-1.5938 10.691-4.4297 2.8359-2.8359 4.4297-6.6797 4.4297-10.691v-275.86c0-4.0117-1.5938-7.8555-4.4297-10.691s-6.6797-4.4297-10.691-4.4297h-275.86c-4.0117 0-7.8555 1.5938-10.691 4.4297-2.8359 2.8359-4.4297 6.6797-4.4297 10.691z"/>
  <use x="70" y="644" xlink:href="#v"/>
  <use x="90.550781" y="644" xlink:href="#c"/>
  <use x="104.359375" y="644" xlink:href="#a"/>
  <use x="123.347656" y="644" xlink:href="#g"/>
  <use x="142.242188" y="644" xlink:href="#b"/>
  <use x="155.628906" y="644" xlink:href="#a"/>
  <use x="174.617188" y="644" xlink:href="#f"/>
  <use x="204.410156" y="644" xlink:href="#l"/>
  <use x="224.453125" y="644" xlink:href="#k"/>
  <use x="252.453125" y="644" xlink:href="#j"/>
  <use x="272.617188" y="644" xlink:href="#b"/>
  <use x="286" y="644" xlink:href="#i"/>
  <use x="295.601562" y="644" xlink:href="#h"/>
  <use x="305.195312" y="644" xlink:href="#d"/>
  <use x="334.878906" y="644" xlink:href="#u"/>
  <use x="353.132812" y="644" xlink:href="#g"/>
  <use x="372.023438" y="644" xlink:href="#d"/>
  <use x="401.707031" y="644" xlink:href="#f"/>
  <use x="421.75" y="644" xlink:href="#a"/>
  <use x="440.742187" y="644" xlink:href="#c"/>
  <use x="464.296875" y="644" xlink:href="#t"/>
  <use x="487.28125" y="644" xlink:href="#c"/>
  <use x="501.085937" y="644" xlink:href="#i"/>
  <use x="510.6875" y="644" xlink:href="#d"/>
  <use x="530.617187" y="644" xlink:href="#b"/>
  <use x="544.003906" y="644" xlink:href="#a"/>
  <use x="562.992187" y="644" xlink:href="#d"/>
  <use x="70" y="672" xlink:href="#s"/>
  <use x="82.183594" y="672" xlink:href="#c"/>
  <use x="95.992188" y="672" xlink:href="#e"/>
  <use x="115.226562" y="672" xlink:href="#r"/>
  <use x="154.152344" y="672" xlink:href="#b"/>
  <use x="167.535156" y="672" xlink:href="#q"/>
  <use x="187.46875" y="672" xlink:href="#a"/>
  <use x="216.207031" y="672" xlink:href="#p"/>
  <use x="239.640625" y="672" xlink:href="#e"/>
  <use x="258.878906" y="672" xlink:href="#o"/>
  <use x="278.8125" y="672" xlink:href="#d"/>
  <use x="308.492188" y="672" xlink:href="#n"/>
  <use x="329.015625" y="672" xlink:href="#c"/>
  <use x="342.820312" y="672" xlink:href="#e"/>
  <use x="362.058594" y="672" xlink:href="#h"/>
  <use x="371.65625" y="672" xlink:href="#a"/>
  <use x="390.648438" y="672" xlink:href="#m"/>
  <use x="407.242188" y="672" xlink:href="#b"/>
 </g>
</svg>
